<svg xmlns="http://www.w3.org/2000/svg" viewBox="0 0 405.232 113.988"><defs><style>.prefix__cls-1{fill:#fff}.prefix__cls-2{fill:#f1f2f0}</style></defs><g id="prefix__Livello_2" data-name="Livello 2"><g id="prefix__Livello_1-2" data-name="Livello 1"><path class="prefix__cls-1" d="M79.793 25.096l3.164 9.806 3.972-4.296v-7.432l-7.425-2.941-6.143 4.916 6.432-.053z"/><path class="prefix__cls-1" d="M81.005 40.22l-3.731-11.566H67.237l2.602 8.174-12.926-.008v56.935l33.411-27.77zM66.542 58.11v-5.313l7.473-2.988 1.09 3.36z"/><path class="prefix__cls-2" d="M34.029 25.096l-3.163 9.806-3.972-4.296v-7.432l7.425-2.941 6.143 4.916-6.433-.053z"/><path class="prefix__cls-2" d="M43.984 36.828l2.602-8.174H36.549L32.82 40.22h-.001l-9.32 25.765 33.412 27.77V36.82zm3.297 21.281l-8.564-4.94 1.091-3.36 7.473 2.988z"/><g><path class="prefix__cls-1" d="M110.924 40.656h14.634a12.257 12.257 0 017.945 2.44 7.93 7.93 0 013.018 6.495 7.685 7.685 0 01-1.256 4.323 8.447 8.447 0 01-3.429 2.97 9.93 9.93 0 014.371 3.139 7.638 7.638 0 011.618 4.83 8.6 8.6 0 01-3.187 6.979 12.852 12.852 0 01-8.452 2.632h-15.262zm14.344 4.299h-9.273V55h9.273a7.062 7.062 0 004.54-1.352 4.83 4.83 0 000-7.341 7.065 7.065 0 00-4.54-1.352zm.531 25.21a7.756 7.756 0 005.023-1.521 5.233 5.233 0 000-8.041 7.676 7.676 0 00-5.023-1.546h-9.804v11.108zM144.322 74.464V40.656h5.07v33.808zM190.497 57.995a17.558 17.558 0 01-1.28 6.737 16.664 16.664 0 01-3.501 5.385 16.152 16.152 0 01-5.289 3.574 16.672 16.672 0 01-6.592 1.304 17.743 17.743 0 01-6.907-1.352 17.096 17.096 0 01-9.345-9.249 17.65 17.65 0 010-13.668 17.517 17.517 0 013.719-5.554 17.127 17.127 0 015.578-3.695 17.734 17.734 0 016.906-1.352 18.907 18.907 0 017.583 1.545 17.082 17.082 0 016.037 4.299l-3.478 3.38a12.795 12.795 0 00-4.564-3.356 13.67 13.67 0 00-5.578-1.183 12.502 12.502 0 00-4.902.966 11.894 11.894 0 00-3.96 2.68 12.377 12.377 0 00-2.608 4.057 13.406 13.406 0 00-.942 5.047 13.1 13.1 0 00.966 5.047 12.685 12.685 0 002.632 4.057 12.185 12.185 0 003.96 2.705 12.35 12.35 0 004.95.99 11.321 11.321 0 007.656-2.729 10.412 10.412 0 003.646-6.93h-11.253v-4.444h16.566zM208.392 74.464V40.656h11.929a19.2 19.2 0 017.076 1.28 17.496 17.496 0 015.65 3.526 15.964 15.964 0 013.743 5.385 16.924 16.924 0 011.353 6.761 16.577 16.577 0 01-1.353 6.713 16.263 16.263 0 01-3.719 5.338 17.15 17.15 0 01-5.65 3.525 19.382 19.382 0 01-7.1 1.28zm12.026-29.268h-6.955v24.728h6.955a12.965 12.965 0 004.926-.942 11.887 11.887 0 003.984-2.608 12.406 12.406 0 002.633-3.912 12.155 12.155 0 00.965-4.854 12.504 12.504 0 00-.965-4.902 12.272 12.272 0 00-2.633-3.96 11.887 11.887 0 00-3.984-2.608 12.965 12.965 0 00-4.926-.942zM244.734 74.464V40.656h5.072v33.808zM257.237 74.464V40.656h15.648a11.33 11.33 0 017.993 2.826 9.493 9.493 0 013.067 7.317 9.328 9.328 0 01-3.091 7.244 11.41 11.41 0 01-7.969 2.801h-10.577v13.62zm15.117-29.365h-10.046v11.447h10.046a6.82 6.82 0 004.709-1.57 5.32 5.32 0 001.763-4.177 5.246 5.246 0 00-1.763-4.154 6.89 6.89 0 00-4.71-1.546zM289.686 74.464V40.656h15.649a11.33 11.33 0 017.993 2.826 9.493 9.493 0 013.067 7.317 9.328 9.328 0 01-3.092 7.244 11.41 11.41 0 01-7.968 2.801h-10.577v13.62zm15.117-29.365h-10.045v11.447h10.045a6.82 6.82 0 004.71-1.57 5.32 5.32 0 001.762-4.177 5.246 5.246 0 00-1.763-4.154 6.89 6.89 0 00-4.709-1.546zM322.268 74.464V40.656h24.92V45.1h-19.85v10.143h13.04v4.346h-13.04V70.02h20.044v4.444zM353.912 74.464V40.656h15.358a11.771 11.771 0 018.138 2.777 9.22 9.22 0 013.115 7.22 9.163 9.163 0 01-1.884 5.772 10.354 10.354 0 01-5.07 3.502l7.534 14.537H375.5l-7.004-13.861h-9.514v13.86zm14.923-29.365h-9.852v11.302h9.852a7.004 7.004 0 004.757-1.57 5.53 5.53 0 000-8.186 7.077 7.077 0 00-4.757-1.546z"/></g></g></g></svg>