<svg xmlns="http://www.w3.org/2000/svg" viewBox="0 0 113.988 113.988"><defs><style>.prefix__cls-1{fill:#fff}.prefix__cls-2{fill:#f1f2f0}</style></defs><g id="prefix__Livello_2" data-name="Livello 2"><g id="prefix__Livello_1-2" data-name="Livello 1"><path class="prefix__cls-1" d="M79.876 25.096l3.163 9.806 3.972-4.296v-7.432l-7.425-2.941-6.143 4.916 6.433-.053z"/><path class="prefix__cls-1" d="M81.087 40.22l-3.73-11.566H67.32l2.602 8.174-12.927-.008v56.935l33.411-27.77zM66.625 58.11v-5.313l7.472-2.988 1.091 3.36z"/><g><path class="prefix__cls-2" d="M34.112 25.096l-3.163 9.806-3.972-4.296v-7.432l7.425-2.941 6.143 4.916-6.433-.053z"/><path class="prefix__cls-2" d="M44.066 36.828l2.602-8.174H36.632L32.9 40.22l-9.32 25.765 33.412 27.77V36.82zm3.297 21.281L38.8 53.17l1.09-3.36 7.473 2.988z"/></g></g></g></svg>