<?xml version="1.0" encoding="iso-8859-1"?>
<!-- Generator: Adobe Illustrator 19.0.0, SVG Export Plug-In . SVG Version: 6.00 Build 0)  -->
<svg version="1.1" id="Capa_1" xmlns="http://www.w3.org/2000/svg" xmlns:xlink="http://www.w3.org/1999/xlink" x="0px" y="0px"
	 viewBox="0 0 512.019 512.019" style="enable-background:new 0 0 512.019 512.019;" xml:space="preserve">
<path style="fill:#2196F3;" d="M256.008,512.019c-1.399,0.003-2.784-0.273-4.075-0.811c-3.989-1.649-6.591-5.54-6.592-9.856V280.275
	L135.218,381.224c-4.342,3.982-11.09,3.691-15.072-0.651c-3.982-4.342-3.691-11.09,0.651-15.072l119.424-109.483L120.754,146.558
	c-4.342-3.982-4.633-10.73-0.651-15.072c3.982-4.342,10.73-4.633,15.072-0.651l110.165,100.928V10.686
	C245.33,4.795,250.097,0.011,255.988,0c2.84-0.005,5.565,1.123,7.571,3.134l128,128c4.163,4.168,4.159,10.922-0.009,15.085
	c-0.108,0.108-0.219,0.214-0.332,0.318L271.794,256.019L391.261,365.48c4.344,3.98,4.639,10.727,0.659,15.071
	c-0.103,0.113-0.209,0.224-0.318,0.332l-128,128C261.591,510.901,258.856,512.03,256.008,512.019z M266.674,280.275v195.328
	l101.909-101.909L266.674,280.275z M266.674,36.435v195.328l101.909-93.419L266.674,36.435z"/>
<path d="M256.008,512.019c-5.891,0-10.667-4.776-10.667-10.667V280.275L135.218,381.224c-4.342,3.982-11.09,3.691-15.072-0.651
	c-3.982-4.342-3.691-11.09,0.651-15.072l119.424-109.483L120.754,146.558c-4.342-3.982-4.633-10.73-0.651-15.072
	c3.982-4.342,10.73-4.633,15.072-0.651l110.165,100.928V10.686C245.33,4.795,250.097,0.011,255.988,0
	c2.84-0.005,5.565,1.123,7.571,3.134l128,128c4.163,4.168,4.159,10.922-0.009,15.085c-0.108,0.108-0.219,0.214-0.332,0.318
	L271.794,256.019L391.261,365.48c4.344,3.98,4.639,10.727,0.659,15.071c-0.103,0.113-0.209,0.224-0.318,0.332l-128,128
	C261.591,510.901,258.856,512.03,256.008,512.019z M266.674,280.275v195.328l101.909-101.909L266.674,280.275z M266.674,36.435
	v195.328l101.909-93.419L266.674,36.435z"/>
<g>
</g>
<g>
</g>
<g>
</g>
<g>
</g>
<g>
</g>
<g>
</g>
<g>
</g>
<g>
</g>
<g>
</g>
<g>
</g>
<g>
</g>
<g>
</g>
<g>
</g>
<g>
</g>
<g>
</g>
</svg>
