<svg width="30" height="30" viewBox="0 0 30 30" fill="none" xmlns="http://www.w3.org/2000/svg">
<path d="M15 30C23.2843 30 30 23.2843 30 15C30 6.71573 23.2843 0 15 0C6.71573 0 0 6.71573 0 15C0 23.2843 6.71573 30 15 30Z" fill="#F0B90B"/>
<path fill-rule="evenodd" clip-rule="evenodd" d="M8.61614 11.1903L15.0061 4.80029L17.554 7.34819L11.164 13.7382L8.61614 11.1903ZM8.62079 18.8262L18.8326 8.61434L21.3805 11.1622L11.1687 21.3741L8.62079 18.8262ZM22.6519 12.4408L12.4401 22.6527L14.9878 25.2003L25.2 14.9886L22.6519 12.4408ZM4.79999 15.0057L7.34789 12.4578L9.89579 15.0057L7.34789 17.5536L4.79999 15.0057Z" fill="white"/>
</svg>
