<svg id="Capa_1" height="25" width="25" viewBox="0 0 500 500"  xmlns="http://www.w3.org/2000/svg">
<path d="m255.049 61.581c-128.239-35.901-255.049 61.037-255.049 193.416 0 132.633 127.041 229.252 255.049 193.415 128.417 35.981 254.951-61.303 254.951-193.415 0-132.26-126.692-229.352-254.951-193.416zm-225.049 193.416c0-95.121 78.14-172.342 173.652-170.804-57.16 35.44-95.315 98.746-95.315 170.804s38.155 135.364 95.315 170.804c-95.51 1.538-173.652-75.681-173.652-170.804zm279.169 170.831c-94.197 0-170.831-76.635-170.831-170.831s76.634-170.831 170.831-170.831 170.831 76.635 170.831 170.831-76.634 170.831-170.831 170.831z"/><path d="m330.432 239.997h-42.526c-12.787 0-23.19-10.402-23.19-23.189 0-12.83 10.385-23.19 23.185-23.19.095.001.19 0 .287.001h40.749c8.579.079 17.034 3.897 23.204 10.48 5.665 6.045 15.159 6.354 21.202.687 6.044-5.665 6.353-15.157.688-21.202-14.189-15.139-30.512-19.965-49.861-19.965v-17.972c0-8.284-6.716-15-15-15s-15 6.716-15 15v17.972c-39.826 0-59.453 25.908-59.453 53.189 0 29.329 23.861 53.189 53.19 53.189h42.526c12.787 0 23.189 10.402 23.189 23.189 0 12.83-10.385 23.19-23.185 23.19-.095 0-.19-.001-.287-.001h-44.458c-6.177-.058-12.424-2.157-18.068-6.073-6.807-4.723-16.153-3.032-20.875 3.773-4.722 6.807-3.033 16.152 3.773 20.875 18.34 12.724 34.002 11.425 43.646 11.425v17.972c0 8.284 6.716 15 15 15s15-6.716 15-15v-17.972c40.3 0 59.453-26.402 59.453-53.189.001-29.329-23.86-53.189-53.189-53.189z"/></svg>