<?xml version="1.0" encoding="utf-8"?>
<!-- Generator: Adobe Illustrator 25.0.0, SVG Export Plug-In . SVG Version: 6.00 Build 0)  -->
<svg version="1.1" id="Layer_1" xmlns="http://www.w3.org/2000/svg" xmlns:xlink="http://www.w3.org/1999/xlink" x="0px" y="0px"
	 viewBox="0 0 186 186" style="enable-background:new 0 0 186 186;" xml:space="preserve">
<style type="text/css">
	.st0{fill:url(#SVGID_1_);}
	.st1{fill:url(#SVGID_2_);}
	.st2{fill:#B3C9F4;}
	.st3{fill-rule:evenodd;clip-rule:evenodd;fill:#FFFFFF;}
	.st4{fill:#717BBF;}
	.st5{opacity:0.5;fill:url(#SVGID_3_);enable-background:new    ;}
	.st6{opacity:0.5;fill:url(#SVGID_4_);enable-background:new    ;}
</style>
<g>
	
		<linearGradient id="SVGID_1_" gradientUnits="userSpaceOnUse" x1="41.1119" y1="-1968.1222" x2="94.2113" y2="-1968.1222" gradientTransform="matrix(1 0 0 -1 0 -1826)">
		<stop  offset="0" style="stop-color:#E3FFFF"/>
		<stop  offset="1" style="stop-color:#89A2E5"/>
		<stop  offset="1" style="stop-color:#BBF9FF;stop-opacity:0"/>
	</linearGradient>
	<path class="st0" d="M41.1,104.7l53.1,74.8V136L41.1,104.7z"/>
	
		<linearGradient id="SVGID_2_" gradientUnits="userSpaceOnUse" x1="-31.3844" y1="999.9824" x2="429.3379" y2="676.4092" gradientTransform="matrix(1 0 0 1 0 -754)">
		<stop  offset="6.489749e-03" style="stop-color:#DC614D"/>
		<stop  offset="0.3603" style="stop-color:#8D8DE4"/>
		<stop  offset="1" style="stop-color:#89A2E5"/>
	</linearGradient>
	<path class="st1" d="M94.2,136v43.5l53.2-74.8L94.2,136z"/>
	<g>
		<path class="st2" d="M94.2,70.5L41.1,94.7L94.2,126l53.1-31.3L94.2,70.5z"/>
	</g>
	<path class="st3" d="M106.6,60.4c-3.9-1.5-8.1-2.4-12.3-2.4c-9,0-17.3,3.5-23.5,9.8S61,82.5,61,91.3v1.2l1,0.6
		c5.1,2.8,10.7,4.4,16.4,4.4c0.2,0,0.3,0,0.5,0c5.1-0.1,10-1.2,14.4-3.5c-1.5-0.8-2.8-1.7-4.1-2.7c-7.8,3.1-16.7,2.7-24.2-1.2
		C65.8,74.5,78.7,62,94.2,62c4.4,0,8.6,1,12.5,2.8C106.8,63.4,106.8,61.9,106.6,60.4"/>
	<path class="st3" d="M127.6,91.2C127.5,80,122,70,113.2,63.8c0,1.7-0.1,3.3-0.3,4.9c6.4,5.2,10.3,12.9,10.7,21.3
		c-13.7,7.1-31,2.2-38.8-11.5c-2.2-3.7-3.4-7.8-3.7-12c-1.4,0.8-2.6,1.5-3.7,2.5c0.7,4.1,2,8,4.1,11.5c4.4,7.8,11.7,13.3,20.2,15.6
		c2.9,0.8,5.8,1.2,8.7,1.2c5.7,0,11.3-1.5,16.5-4.4l1-0.6L127.6,91.2z"/>
	<path class="st3" d="M95.4,34.8l-1-0.6l-1,0.6c-5.1,3-9.3,7.3-12.2,12.3c-2.5,4.4-4,9.3-4.4,14.4c1.4-0.9,2.8-1.5,4.4-2.2
		c1.2-8.3,6.1-15.8,13.3-20.3c13.1,8.5,17.4,26,9.5,39.6c-2.2,3.7-5.1,6.9-8.5,9.3c1.2,0.8,2.6,1.5,4.1,2c3.2-2.6,5.9-5.7,8-9.3
		C116.6,64.6,111.2,44.1,95.4,34.8"/>
	<polygon class="st4" points="94.2,141.9 147.4,104.7 147.4,104.7 94.2,136 41.1,104.7 41.1,104.7 	"/>
	
		<linearGradient id="SVGID_3_" gradientUnits="userSpaceOnUse" x1="92.9009" y1="-1833.3231" x2="60.7049" y2="-1964.7244" gradientTransform="matrix(1 0 0 -1 0 -1826)">
		<stop  offset="0" style="stop-color:#E3FFFF"/>
		<stop  offset="1" style="stop-color:#BBF9FF;stop-opacity:0"/>
	</linearGradient>
	<path class="st5" d="M41.1,94.7L94.2,126V6.7L41.1,94.7z"/>
	
		<linearGradient id="SVGID_4_" gradientUnits="userSpaceOnUse" x1="134.0258" y1="-1927.4041" x2="73.2985" y2="-1874.006" gradientTransform="matrix(1 0 0 -1 0 -1826)">
		<stop  offset="1.975860e-02" style="stop-color:#DD5C47"/>
		<stop  offset="1" style="stop-color:#BBF9FF;stop-opacity:0"/>
	</linearGradient>
	<path class="st6" d="M94.2,6.7v119.5l53.1-31.3L94.2,6.7z"/>
</g>
</svg>
