<?xml version="1.0" encoding="UTF-8"?>
<svg width="36px" height="36px" viewBox="0 0 36 36" version="1.1" xmlns="http://www.w3.org/2000/svg" xmlns:xlink="http://www.w3.org/1999/xlink">
    <!-- Generator: Sketch 61.2 (89653) - https://sketch.com -->
    <title>increase with bg</title>
    <desc>Created with Sketch.</desc>
    <g id="increase-with-bg" stroke="none" stroke-width="1" fill="none" fill-rule="evenodd">
        <path d="M18,0 C27.9411255,0 36,8.0588745 36,18 C36,27.9411255 27.9411255,36 18,36 C8.0588745,36 0,27.9411255 0,18 C0,8.0588745 8.0588745,0 18,0 Z M18.7337143,7.99007143 C18.3668571,7.62235714 17.7548571,7.62235714 17.3871429,7.99007143 L17.3871429,7.99007143 L8.85685714,16.5203571 C8.47628571,16.9009286 8.47628571,17.5000714 8.85685714,17.8806429 C9.22371429,18.2483571 9.83657143,18.2483571 10.2171429,17.8806429 L10.2171429,17.8806429 L17.1008571,10.9832143 L17.1008571,28.6026429 C17.1008571,29.1332143 17.5362857,29.5549286 18.0668571,29.5549286 C18.5974286,29.5549286 19.0191429,29.1332143 19.0191429,28.6026429 L19.0191429,28.6026429 L19.0191429,10.9840714 L25.9165714,17.8815 C26.2834286,18.2492143 26.8954286,18.2492143 27.2631429,17.8815 C27.6437143,17.5009286 27.6437143,16.9017857 27.2631429,16.5212143 L27.2631429,16.5212143 Z" id="Combined-Shape" fill="#1EC490"></path>
    </g>
</svg>