<svg xmlns="http://www.w3.org/2000/svg" xmlns:xlink="http://www.w3.org/1999/xlink" width="170.939" height="46.117" viewBox="0 0 170.939 46.117">
  <defs>
    <linearGradient id="linear-gradient" y1="0.5" x2="1" y2="0.5" gradientUnits="objectBoundingBox">
      <stop offset="0.005" stop-color="#4e9df7"/>
      <stop offset="0.091" stop-color="#55abf7"/>
      <stop offset="0.247" stop-color="#5fbff8"/>
      <stop offset="0.425" stop-color="#67cef9"/>
      <stop offset="0.641" stop-color="#6bd6f9"/>
      <stop offset="1" stop-color="#6dd9fa"/>
    </linearGradient>
  </defs>
  <path id="Path_802" data-name="Path 802" d="M511.29,255.751a23.037,23.037,0,1,0,6.761,16.3A23.084,23.084,0,0,0,511.29,255.751ZM493.8,292.676a20.665,20.665,0,0,1,0-41.259v7.819a12.864,12.864,0,0,0,0,25.62Zm1.194-10.148a10.494,10.494,0,1,1,7.408-3.072A10.481,10.481,0,0,1,494.992,282.529Zm15.019,3.7a20.666,20.666,0,0,1-13.822,6.452v-7.819a12.864,12.864,0,0,0,0-25.62v-7.819a20.665,20.665,0,0,1,13.822,34.806Zm109.521-23.268a11.364,11.364,0,0,0-17.755,2.369,11.424,11.424,0,0,0-1.484,5.7,10.656,10.656,0,0,0,3.264,7.87,10.971,10.971,0,0,0,8.024,3.254,11.267,11.267,0,0,0,7.952-19.2Zm-.122,12.609a8.721,8.721,0,0,1-3.305,3.294,9.145,9.145,0,0,1-4.606,1.209,8.973,8.973,0,0,1-9-9.049,9.26,9.26,0,0,1,1.19-4.667,8.994,8.994,0,0,1,12.386-3.325,8.867,8.867,0,0,1,4.525,7.891A9.255,9.255,0,0,1,619.41,275.566Zm23.461,0v.062a5.937,5.937,0,0,1-2.11,4.6,8.1,8.1,0,0,1-5.431,1.809,11.188,11.188,0,0,1-4.532-.92,12.182,12.182,0,0,1-3.755-2.606l1.552-1.5a9.249,9.249,0,0,0,6.735,2.882c3.2,0,5.369-1.717,5.369-4.261v-.062a2.925,2.925,0,0,0-1.055-2.484,11.53,11.53,0,0,0-4.655-1.809,12.56,12.56,0,0,1-5.245-2.023,4.5,4.5,0,0,1-1.707-3.741v-.061a4.776,4.776,0,0,1,.5-2.177,5.509,5.509,0,0,1,1.366-1.809,7.346,7.346,0,0,1,4.749-1.625,11.07,11.07,0,0,1,3.693.675,11.862,11.862,0,0,1,3.1,1.809l-1.365,1.655a8.675,8.675,0,0,0-5.432-1.993,5,5,0,0,0-3.29,1.1,3.1,3.1,0,0,0-1.148,2.362v.061a2.32,2.32,0,0,0,.9,2.055,10.936,10.936,0,0,0,4.377,1.625,13.08,13.08,0,0,1,5.586,2.269A5.037,5.037,0,0,1,642.872,275.564ZM593.846,264.8a9.286,9.286,0,0,0-4.861-3.772,22.439,22.439,0,0,0-6.956-.773H577.6v21.364h6.8a13.594,13.594,0,0,0,6.213-1.16,8.883,8.883,0,0,0,3.6-3.6,11.259,11.259,0,0,0,1.383-5.654A11.451,11.451,0,0,0,593.846,264.8Zm-1.8,11.42a7.087,7.087,0,0,1-3.794,2.828,23.126,23.126,0,0,1-6.141.548h-2.471V262.346h1.515a25.137,25.137,0,0,1,6.61.611,7.5,7.5,0,0,1,4.17,3,9.113,9.113,0,0,1,1.495,5.278A8.73,8.73,0,0,1,592.047,276.216Zm-60.9-9.874a9.083,9.083,0,0,0-1.2,4.658,8.713,8.713,0,0,0,2.685,6.517,9.3,9.3,0,0,0,6.761,2.614,9.487,9.487,0,0,0,7.505-3.519l1.688,1.281a10.732,10.732,0,0,1-3.986,3.142,12.5,12.5,0,0,1-5.339,1.108,11.114,11.114,0,0,1-8.847-3.732,11.266,11.266,0,0,1-2.714-7.606,10.56,10.56,0,0,1,3.294-7.891,11.341,11.341,0,0,1,8.236-3.2,12.153,12.153,0,0,1,5.4,1.18,10.6,10.6,0,0,1,3.956,3.325l-1.688,1.291a9.268,9.268,0,0,0-3.345-2.756,9.771,9.771,0,0,0-4.292-.934,9.444,9.444,0,0,0-4.738,1.229A8.859,8.859,0,0,0,531.146,266.342Zm38.875-6.091h2.074V273.1a9.009,9.009,0,1,1-18.018,0V260.251h2.064V273.1a6.94,6.94,0,0,0,13.88,0Z" transform="translate(-471.932 -248.99)" fill="url(#linear-gradient)"/>
</svg>
