<?xml version="1.0" encoding="UTF-8"?>
<svg width="36px" height="36px" viewBox="0 0 36 36" version="1.1" xmlns="http://www.w3.org/2000/svg" xmlns:xlink="http://www.w3.org/1999/xlink">
    <!-- Generator: Sketch 61.2 (89653) - https://sketch.com -->
    <title>reduce with bg</title>
    <desc>Created with Sketch.</desc>
    <g id="reduce-with-bg" stroke="none" stroke-width="1" fill="none" fill-rule="evenodd">
        <path d="M18,0 C27.9411255,0 36,8.0588745 36,18 C36,27.9411255 27.9411255,36 18,36 C8.0588745,36 0,27.9411255 0,18 C0,8.0588745 8.0588745,0 18,0 Z M18.0531429,7.71428571 C17.5225714,7.71428571 17.1008571,8.136 17.1008571,8.66657143 L17.1008571,8.66657143 L17.1008571,26.2851429 L10.2034286,19.3877143 C9.83657143,19.02 9.22457143,19.02 8.85685714,19.3877143 C8.47628571,19.7682857 8.47628571,20.3674286 8.85685714,20.748 L8.85685714,20.748 L17.3862857,29.2791429 C17.7531429,29.6468571 18.3651429,29.6468571 18.7328571,29.2791429 L18.7328571,29.2791429 L27.2631429,20.7488571 C27.6437143,20.3682857 27.6437143,19.7691429 27.2631429,19.3885714 C26.8962857,19.0208571 26.2834286,19.0208571 25.9028571,19.3885714 L25.9028571,19.3885714 L19.0191429,26.286 L19.0191429,8.66657143 C19.0191429,8.136 18.5837143,7.71428571 18.0531429,7.71428571 Z" id="Combined-Shape" fill="#FD3B4C"></path>
    </g>
</svg>