<svg width="20" height="36" viewBox="0 0 20 36" fill="none" xmlns="http://www.w3.org/2000/svg">
<path d="M0.966282 24.1264C0.322094 22.9206 0 21.5008 0 19.8671C0 18.3501 0.253771 16.9984 0.761313 15.812C1.28838 14.6062 1.85448 13.6434 2.45963 12.9238C3.08429 12.1848 3.83585 11.6013 4.71429 11.1734C5.61225 10.7261 6.55901 10.5024 7.55457 10.5024C8.96007 10.5024 10.0825 10.9011 10.9219 11.6985L14.7578 8.48947C14.6797 7.80875 14.6406 7.13776 14.6406 6.4765C14.6406 2.15883 15.7826 0 18.0665 0C18.6522 0 19.1109 0.204214 19.4428 0.612643C19.7746 1.02107 19.9601 1.54619 19.9991 2.18801C20.0186 3.12156 19.7161 4.05511 19.0914 4.98866C18.4862 5.92221 17.5883 6.94327 16.3975 8.05186C17.0027 12.0778 17.3052 14.8201 17.3052 16.2788C17.3052 17.718 17.1198 19.1183 16.7489 20.4797C16.378 21.8217 15.8119 23.047 15.0506 24.1556C14.2893 25.2642 13.2449 26.1297 11.9175 26.752C10.5901 27.3744 9.04792 27.6856 7.29104 27.6856C4.77285 27.6856 2.86957 26.8298 1.58119 25.1183C1.22981 26.3436 1.05413 27.7342 1.05413 29.2901C1.05413 30.8655 1.46406 32.2755 2.28394 33.5203C3.12334 34.7844 4.19698 35.4165 5.50488 35.4165C5.60249 35.4165 5.65129 35.5138 5.65129 35.7083C5.67081 35.9028 5.62201 36 5.50488 36C3.96273 36 2.69388 35.2707 1.69831 33.812C0.702751 32.3728 0.204969 30.7682 0.204969 28.9984C0.204969 27.2285 0.45874 25.6045 0.966282 24.1264ZM11.4197 12.2528C11.9663 12.9919 12.2396 13.8282 12.2396 14.7618C12.2396 15.6759 12.0932 16.5024 11.8004 17.2415C11.5271 17.9611 11.0293 18.6029 10.307 19.1669C9.60426 19.7115 8.78438 19.9838 7.84738 19.9838C7.65217 19.9838 7.49601 19.9352 7.37888 19.8379C7.28128 19.7407 7.21295 19.5851 7.17391 19.3712C8.01331 19.3712 8.78438 18.9822 9.48713 18.2042C10.5022 17.1151 11.0098 15.8898 11.0098 14.5284C11.0098 13.9643 10.9024 13.4198 10.6877 12.8947C8.50133 14.7618 6.65661 16.59 5.15351 18.3793C3.6504 20.1686 2.54747 22.1135 1.84472 24.2139C2.95741 26.0032 4.70453 26.8979 7.08607 26.8979C8.55013 26.8979 9.82875 26.5867 10.9219 25.9643C12.0346 25.3614 12.9033 24.5348 13.528 23.4846C14.7578 21.423 15.3727 18.9238 15.3727 15.987C15.3727 15.2674 15.197 13.0794 14.8456 9.42301L11.4197 12.2528ZM10.2484 12.282C9.62378 11.6207 8.76486 11.2901 7.6717 11.2901C6.57853 11.2901 5.59272 11.5527 4.71429 12.0778C3.09406 13.0502 1.93256 14.684 1.22981 16.9789C0.91748 17.9514 0.761313 18.953 0.761313 19.9838C0.761313 21.1313 0.946761 22.1912 1.31766 23.1637C2.6646 19.799 5.64153 16.1718 10.2484 12.282ZM16.134 4.98866C16.134 5.51378 16.1828 6.21394 16.2804 7.08914C18.213 5.20259 19.1792 3.60778 19.1792 2.3047C19.1792 1.29336 18.8083 0.787683 18.0665 0.787683C16.7782 0.787683 16.134 2.18801 16.134 4.98866Z" fill="white"/>
</svg>
