<?xml version="1.0" encoding="iso-8859-1"?>
<!-- Generator: Adobe Illustrator 19.0.0, SVG Export Plug-In . SVG Version: 6.00 Build 0)  -->
<svg version="1.1" id="Layer_1" xmlns="http://www.w3.org/2000/svg" xmlns:xlink="http://www.w3.org/1999/xlink" x="0px" y="0px"
	 viewBox="0 0 512 512" style="enable-background:new 0 0 512 512;" xml:space="preserve">
<g>
	<g>
		<path d="M394.667,117.333h-64c-5.896,0-10.667,4.771-10.667,10.667v64c0,5.896,4.771,10.667,10.667,10.667H352v18.51
			c0,11.177-5.958,21.688-15.542,27.438l-69.792,41.879V106.667h42.667c3.875,0,7.448-2.104,9.333-5.5
			c1.875-3.385,1.771-7.531-0.292-10.823L265.042,5.01c-1.947-3.113-5.491-5.009-9.036-5.01c-3.549-0.002-7.098,1.894-9.047,5.01
			l-53.333,85.333c-2.063,3.292-2.167,7.438-0.292,10.823c1.885,3.396,5.458,5.5,9.333,5.5h42.667v248.54l-58.208-32.342
			c-10.156-5.635-16.458-16.354-16.458-27.969v-18.642c24.314-4.956,42.667-26.5,42.667-52.254
			c0-29.406-23.927-53.333-53.333-53.333S106.667,194.594,106.667,224c0,25.754,18.353,47.298,42.667,52.254v18.642
			c0,19.365,10.51,37.229,27.438,46.615l68.563,38.095v26.807c-24.314,4.956-42.667,26.5-42.667,52.254
			C202.667,488.073,226.594,512,256,512s53.333-23.927,53.333-53.333c0-25.754-18.353-47.298-42.667-52.254v-91.04l80.771-48.466
			c15.969-9.573,25.896-27.104,25.896-45.729v-18.51h21.333c5.896,0,10.667-4.771,10.667-10.667v-64
			C405.333,122.104,400.563,117.333,394.667,117.333z M160,256c-17.646,0-32-14.354-32-32s14.354-32,32-32s32,14.354,32,32
			S177.646,256,160,256z M288,458.667c0,17.646-14.354,32-32,32s-32-14.354-32-32s14.354-32,32-32S288,441.021,288,458.667z
			 M221.917,85.333L256,30.792l34.083,54.542H221.917z M384,181.333h-42.667v-42.667H384V181.333z"/>
	</g>
</g>
<g>
</g>
<g>
</g>
<g>
</g>
<g>
</g>
<g>
</g>
<g>
</g>
<g>
</g>
<g>
</g>
<g>
</g>
<g>
</g>
<g>
</g>
<g>
</g>
<g>
</g>
<g>
</g>
<g>
</g>
</svg>
