<?xml version="1.0" encoding="iso-8859-1"?>
<!-- Generator: Adobe Illustrator 19.0.0, SVG Export Plug-In . SVG Version: 6.00 Build 0)  -->
<svg version="1.1" id="Layer_1" xmlns="http://www.w3.org/2000/svg" xmlns:xlink="http://www.w3.org/1999/xlink" x="0px" y="0px"
	 viewBox="0 0 503.488 503.488" style="enable-background:new 0 0 503.488 503.488;" xml:space="preserve">
<g>
	<g>
		<path d="M382.616,133.644h-61.908c-2.148,0-4.156-0.436-4.156,1.7v61.904c0,2.14,2.008,3.28,4.156,3.28h15.516v49.764
			l-70.82,69.436V113.972h27.86c0.024,0,0.056,0,0.056,0c2.164,0,3.892-2.744,3.892-4.88c0-0.78-0.228-2.016-0.624-2.628
			L254.616,2.544C254.024,1.088,252.6,0,251.032,0c-1.58,0-3,0.892-3.584,2.352l-42.24,104.304
			c-0.484,1.196-0.344,3.552,0.376,4.616c0.72,1.068,1.92,2.704,3.208,2.704h25.136v279.308l-66.884-69.672v-71.948
			c11.804-5.852,18.888-17.824,18.888-31.188c0-19.208-15.856-34.832-35.06-34.832c-19.212,0-34.744,15.62-34.744,34.832
			c0,13.364,7.64,25.336,19.444,31.188v78.356c0,0.992-0.116,2.008,0.084,3.056c0.084,0.388,0.1,0.756,0.22,1.124l0.084,0.436
			c0.116,0.432,0.22,0.868,0.392,1.3c0.196,0.452,0.408,0.88,0.648,1.308l0.22,0.392c0.164,0.332,0.328,0.664,0.544,0.976
			c0.584,0.88,1.24,1.676,1.932,2.364l85.872,85.868c-10.568,8.008-16.964,20.632-16.964,33.992
			c0,23.52,19.132,42.652,42.656,42.652c23.516,0,41.976-19.132,41.976-42.652c0-17.776-12.1-33.412-27.836-39.752v-57.576
			l96.5-95.836c0.704-0.7,1.712-1.504,2.288-2.38c0.22-0.308,0.556-0.64,0.728-0.976l0.296-0.396
			c0.244-0.432,0.524-0.872,0.704-1.312c0.172-0.42,0.32-0.856,0.444-1.292l0.132-0.432c0.124-0.372,0.532-0.74,0.616-1.164
			c0.196-1.008,0.58-2.028,0.58-3.016v-56.176h14.92c2.14,0,4.752-1.14,4.752-3.28v-61.904
			C387.364,133.208,384.756,133.644,382.616,133.644z"/>
	</g>
</g>
<g>
</g>
<g>
</g>
<g>
</g>
<g>
</g>
<g>
</g>
<g>
</g>
<g>
</g>
<g>
</g>
<g>
</g>
<g>
</g>
<g>
</g>
<g>
</g>
<g>
</g>
<g>
</g>
<g>
</g>
</svg>
