<svg width="30" height="30" viewBox="0 0 30 30" fill="none" xmlns="http://www.w3.org/2000/svg">
<path d="M15 30C23.2843 30 30 23.2843 30 15C30 6.71573 23.2843 0 15 0C6.71573 0 0 6.71573 0 15C0 23.2843 6.71573 30 15 30Z" fill="black"/>
<path d="M20.7273 8H23.0518L18.2143 12.7867C16.4624 14.5192 13.6221 14.5192 11.869 12.7867L7.02954 8H9.35595L13.0312 11.6361C13.5667 12.1636 14.2884 12.4592 15.0402 12.4592C15.7921 12.4592 16.5137 12.1636 17.0492 11.6361L20.7273 8Z" fill="white"/>
<path d="M9.3261 21.3104H7L11.8689 16.4942C13.6208 14.7617 16.4611 14.7617 18.2143 16.4942L23.0832 21.3104H20.7587L17.052 17.6447C16.5165 17.1173 15.7949 16.8217 15.043 16.8217C14.2912 16.8217 13.5695 17.1173 13.034 17.6447L9.3261 21.3104Z" fill="white"/>
</svg>
